<svg width="45" height="17" viewBox="0 0 45 17" fill="none" xmlns="http://www.w3.org/2000/svg">
<g clip-path="url(#clip0_660_689)">
<path d="M14.4589 7.12412C14.4597 6.64925 14.4172 6.1752 14.3318 5.70721H7.37549V8.38946H11.3588C11.2773 8.81757 11.1048 9.22566 10.8517 9.58911C10.5987 9.95255 10.2703 10.2638 9.88633 10.5042V12.2498H12.2642C13.6564 11.0377 14.4589 9.24438 14.4589 7.12412Z" fill="#4285F4"/>
<path d="M7.37565 13.9319C9.36439 13.9319 11.0429 13.3141 12.2643 12.2497L9.88649 10.5075C9.22418 10.9333 8.37295 11.1738 7.37565 11.1738C5.45229 11.1738 3.81882 9.94935 3.23496 8.29913H0.785889V10.0941C1.39956 11.2478 2.3408 12.2177 3.50449 12.8954C4.66817 13.5731 6.00846 13.9319 7.37565 13.9319Z" fill="#34A853"/>
<path d="M3.23499 8.29924C2.92623 7.43446 2.92623 6.49795 3.23499 5.63317V3.83777H0.785924C0.26883 4.80864 -0.000488281 5.88031 -0.000488281 6.96706C-0.000488281 8.05381 0.26883 9.12548 0.785924 10.0963L3.23499 8.29924Z" fill="#FBBC04"/>
<path d="M21.1255 8.18424V13.0923H19.4753V0.967292H23.8487C24.3709 0.956694 24.8901 1.04399 25.3764 1.22413C25.8626 1.40428 26.3062 1.67369 26.6814 2.01677C27.0545 2.34495 27.3521 2.74216 27.5556 3.18366C27.759 3.62517 27.864 4.10151 27.864 4.583C27.864 5.0645 27.759 5.54084 27.5556 5.98235C27.3521 6.42385 27.0545 6.82106 26.6814 7.14923C25.9162 7.83839 24.9719 8.1824 23.8487 8.18126H21.1246L21.1255 8.18424ZM21.1255 2.46169V6.69495H23.8911C24.3299 6.70258 24.7614 6.588 25.1316 6.36551C25.5019 6.14303 25.7946 5.8225 25.9732 5.44392C26.1518 5.06533 26.2084 4.64547 26.1359 4.23671C26.0634 3.82795 25.865 3.44841 25.5656 3.14545C25.5507 3.13097 25.5376 3.11692 25.5205 3.10287C25.3124 2.89265 25.0593 2.72662 24.7781 2.61578C24.4968 2.50495 24.1939 2.45184 23.8893 2.45998L21.1255 2.46169ZM31.667 4.52702C32.8868 4.52702 33.8486 4.83441 34.5525 5.4492C35.2565 6.06399 35.6089 6.90741 35.6098 7.97945V13.0923H34.0318V11.9428H33.961C33.2778 12.8914 32.369 13.3654 31.2347 13.3648C30.2674 13.3648 29.458 13.0939 28.8063 12.552C28.4938 12.3032 28.244 11.9918 28.075 11.6403C27.906 11.2889 27.8221 10.9063 27.8293 10.5204C27.8293 9.66146 28.173 8.97884 28.8604 8.47248C29.5478 7.96611 30.4646 7.71236 31.6107 7.71123C32.5895 7.71123 33.3979 7.88153 34.03 8.2183V7.86152C34.0319 7.59849 33.9718 7.33836 33.8541 7.09998C33.7363 6.86161 33.5639 6.65097 33.3492 6.48336C32.9129 6.11176 32.3442 5.90925 31.7568 5.91625C30.8361 5.91625 30.1071 6.28311 29.5696 7.01682L28.1201 6.15084C28.9169 5.06772 30.0988 4.52645 31.6657 4.52702H31.667ZM29.5322 10.5536C29.5314 10.7515 29.5805 10.9468 29.6754 11.1233C29.7703 11.2998 29.9084 11.4524 30.0782 11.5686C30.4432 11.8394 30.8959 11.983 31.36 11.9752C32.0557 11.9733 32.7224 11.7119 33.2148 11.248C33.7613 10.762 34.0343 10.192 34.034 9.53771C33.5195 9.15084 32.8023 8.95713 31.8825 8.95656C31.2126 8.95656 30.6538 9.10898 30.2063 9.41382C29.7554 9.72504 29.53 10.1014 29.53 10.5536H29.5322ZM44.6667 4.79907L39.1603 16.75H37.4579L39.5007 12.5678L35.8785 4.79907H37.6711L40.2861 10.7596H40.3217L42.8682 4.79907H44.6667Z" fill="#5F6368"/>
<path d="M7.37565 2.75846C8.42713 2.74221 9.44318 3.11719 10.2043 3.80241L12.3112 1.81499C10.9758 0.631064 9.20723 -0.0191634 7.37565 0.000430296C6.0086 0.000694264 4.66851 0.359643 3.5049 1.03723C2.3413 1.71481 1.39995 2.68438 0.785889 3.83775L3.23496 5.63315C3.81882 3.98293 5.45229 2.75846 7.37565 2.75846Z" fill="#EA4335"/>
</g>
<defs>
<clipPath id="clip0_660_689">
<rect width="44.6667" height="16.75" fill="white"/>
</clipPath>
</defs>
</svg>
