<svg width="20" height="24" viewBox="0 0 20 24" fill="none" xmlns="http://www.w3.org/2000/svg">
<path fill-rule="evenodd" clip-rule="evenodd" d="M5.68159 22.4873L6.09052 20.0106L5.17957 19.9903H0.82959L3.85267 1.71366C3.86209 1.65831 3.89253 1.60694 3.937 1.57039C3.98168 1.53384 4.03863 1.51379 4.09821 1.51379H11.4329C13.8681 1.51379 15.5485 1.99685 16.4258 2.95044C16.8371 3.39778 17.0991 3.86539 17.2259 4.37977C17.3588 4.91964 17.361 5.56455 17.2314 6.35127L17.222 6.40849V6.91264L17.6333 7.13486C17.9796 7.31008 18.2549 7.51057 18.4661 7.74009C18.8178 8.12269 19.0454 8.60888 19.1416 9.18509C19.241 9.77779 19.2081 10.4833 19.0454 11.2819C18.8577 12.2004 18.5543 13.0005 18.1445 13.655C17.7678 14.2581 17.2877 14.7585 16.7175 15.1461C16.1732 15.5146 15.5266 15.7942 14.7955 15.9732C14.0869 16.149 13.2792 16.2378 12.3932 16.2378H11.8224C11.4143 16.2378 11.0179 16.3779 10.7066 16.6292C10.3945 16.8856 10.1882 17.2361 10.1249 17.6193L10.0817 17.8423L9.35914 22.2078L9.3265 22.368C9.31774 22.4188 9.30285 22.444 9.28094 22.4611C9.26145 22.4768 9.23341 22.4873 9.20603 22.4873H5.68159Z" fill="#28356A"/>
<path fill-rule="evenodd" clip-rule="evenodd" d="M18.0226 6.46674C18.0009 6.60019 17.9758 6.73656 17.9477 6.8767C16.9805 11.612 13.6711 13.2479 9.44468 13.2479H7.29269C6.77577 13.2479 6.34012 13.6057 6.25973 14.0919L4.84588 22.643C4.79353 22.9624 5.05155 23.2499 5.3893 23.2499H9.20615C9.65801 23.2499 10.042 22.9369 10.1132 22.5119L10.1506 22.3271L10.8693 17.9787L10.9155 17.7402C10.9858 17.3137 11.3706 17.0005 11.8225 17.0005H12.3933C16.0912 17.0005 18.9862 15.569 19.8323 11.4264C20.1856 9.6959 20.0027 8.2509 19.0674 7.23466C18.7844 6.92828 18.4333 6.67391 18.0226 6.46674Z" fill="#019DDE"/>
<path fill-rule="evenodd" clip-rule="evenodd" d="M17.0107 6.08206C16.8629 6.04091 16.7104 6.00374 16.554 5.97012C16.3968 5.93733 16.2358 5.9083 16.07 5.88282C15.4898 5.79343 14.8539 5.75104 14.1729 5.75104H8.424C8.28228 5.75104 8.1478 5.78153 8.02755 5.83666C7.7623 5.95821 7.56539 6.19755 7.51764 6.49056L6.29457 13.8766L6.25952 14.0919C6.33991 13.6057 6.77556 13.2479 7.29248 13.2479H9.44447C13.6709 13.2479 16.9803 11.6112 17.9475 6.87671C17.9764 6.73658 18.0007 6.6002 18.0224 6.46675C17.7778 6.3429 17.5127 6.23702 17.2273 6.1468C17.1568 6.12445 17.0841 6.10294 17.0107 6.08206Z" fill="#00164C"/>
<path fill-rule="evenodd" clip-rule="evenodd" d="M7.51777 6.49056C7.56552 6.19755 7.76243 5.95821 8.02768 5.8375C8.1488 5.78215 8.28241 5.75166 8.42413 5.75166H14.1731C14.854 5.75166 15.4899 5.79427 16.0701 5.88365C16.2359 5.90892 16.3969 5.93816 16.5542 5.97095C16.7105 6.00436 16.863 6.04175 17.0108 6.08268C17.0842 6.10357 17.1569 6.12529 17.2281 6.1468C17.5135 6.23702 17.7788 6.34374 18.0234 6.46675C18.3112 4.71684 18.021 3.52538 17.0288 2.44648C15.9347 1.25857 13.9604 0.750244 11.4338 0.750244H4.0989C3.58286 0.750244 3.14261 1.108 3.06288 1.59502L0.00781861 20.0596C-0.0524152 20.4249 0.243059 20.7545 0.629432 20.7545H5.1577L7.51777 6.49056Z" fill="#012F86"/>
</svg>
