<svg width="47" height="22" viewBox="0 0 47 22" fill="none" xmlns="http://www.w3.org/2000/svg">
<path fill-rule="evenodd" clip-rule="evenodd" d="M10.4359 3.58496C10.5359 4.47683 10.1701 5.37203 9.62613 6.01566C9.08212 6.6593 8.19 7.15966 7.31719 7.09302C7.19794 6.21947 7.63861 5.30872 8.1423 4.73839C8.70449 4.09531 9.65282 3.61662 10.4359 3.58496ZM13.2585 8.78021C13.1157 8.8656 11.5661 9.79206 11.5844 11.6732C11.605 13.9237 13.5597 14.7072 13.6696 14.7512C13.6721 14.7522 13.6736 14.7528 13.6742 14.7531C13.6731 14.7561 13.6711 14.7623 13.6682 14.7716C13.619 14.9249 13.3045 15.9063 12.5958 16.9183C11.9467 17.8452 11.2749 18.7692 10.2136 18.7881C9.70421 18.7973 9.36359 18.6533 9.00947 18.5036C8.63879 18.3469 8.25331 18.1839 7.64401 18.1839C7.00591 18.1839 6.60271 18.3518 6.21428 18.5136C5.87749 18.6538 5.5518 18.7895 5.09373 18.807C4.06987 18.8442 3.29075 17.8046 2.63657 16.8805C1.29925 14.9913 0.277664 11.5404 1.64963 9.21025C2.33106 8.05348 3.54857 7.321 4.87055 7.30267C5.44032 7.29228 5.99221 7.5062 6.47532 7.69347C6.84446 7.83655 7.17344 7.96408 7.43958 7.96408C7.6783 7.96408 7.99837 7.84059 8.37165 7.69658C8.95913 7.46994 9.67839 7.19246 10.4197 7.26546C10.9268 7.28768 12.3516 7.46705 13.2664 8.77542C13.2647 8.7765 13.262 8.7781 13.2585 8.78021Z" fill="#2A2D2E"/>
<path d="M19.1039 4.19435H23.9404C25.1532 4.19435 26.1383 4.58186 26.8956 5.35689C27.6588 6.12599 28.0404 7.11992 28.0404 8.33866C28.0404 9.53374 27.6528 10.5158 26.8778 11.2849C26.1087 12.0481 25.1237 12.4297 23.9227 12.4297H20.7013V17H19.1039V4.19435ZM20.7013 5.61424V11.0098H23.5233C24.4344 11.0098 25.1414 10.7761 25.6443 10.3088C26.1472 9.84138 26.3986 9.18468 26.3986 8.33866C26.3986 7.45714 26.1501 6.78269 25.6532 6.31531C25.1621 5.84793 24.4522 5.61424 23.5233 5.61424H20.7013ZM32.1153 15.8286C32.9022 15.8286 33.553 15.6008 34.0677 15.1453C34.5883 14.6897 34.8486 14.1188 34.8486 13.4325V12.554L32.2751 12.7226C31.5533 12.7699 31.0238 12.9208 30.6866 13.1752C30.3493 13.4296 30.1807 13.7993 30.1807 14.2845C30.1807 14.7637 30.3612 15.1423 30.7221 15.4204C31.0829 15.6925 31.5474 15.8286 32.1153 15.8286ZM31.8313 17.1686C30.8907 17.1686 30.1156 16.9113 29.5063 16.3965C28.9028 15.8759 28.6011 15.1837 28.6011 14.32C28.6011 13.468 28.9028 12.7995 29.5063 12.3144C30.1097 11.8292 30.9705 11.5541 32.0887 11.489L34.8486 11.3204V10.4507C34.8486 9.85913 34.6652 9.40654 34.2984 9.09298C33.9316 8.77942 33.3932 8.62264 32.6833 8.62264C32.1094 8.62264 31.6332 8.72617 31.2545 8.93324C30.8759 9.14031 30.6333 9.43316 30.5268 9.8118H28.9827C29.0833 9.04861 29.4767 8.43332 30.163 7.96594C30.8552 7.49856 31.713 7.26487 32.7365 7.26487C33.8961 7.26487 34.7924 7.54589 35.4255 8.10793C36.0585 8.66997 36.375 9.45091 36.375 10.4507V17H34.9196V15.589H34.7776C34.47 16.0978 34.0618 16.4882 33.553 16.7604C33.0442 17.0325 32.4703 17.1686 31.8313 17.1686ZM38.7195 20.461C38.4769 20.461 38.2491 20.4432 38.0362 20.4077V19.1032C38.19 19.1328 38.403 19.1476 38.6751 19.1476C39.1188 19.1476 39.4708 19.0293 39.7312 18.7926C39.9974 18.556 40.2311 18.1507 40.4322 17.5768L40.6097 17.0089L37.0689 7.43348H38.7195L41.3463 15.305H41.4883L44.1062 7.43348H45.7302L41.9941 17.5857C41.5859 18.692 41.151 19.4464 40.6896 19.8487C40.2281 20.2569 39.5714 20.461 38.7195 20.461Z" fill="#2A2D2E"/>
</svg>
