<svg width="22" height="26" viewBox="0 0 22 26" fill="none" xmlns="http://www.w3.org/2000/svg">
<path d="M18.1547 13.7206C18.1434 11.6449 19.0823 10.0782 20.9826 8.92446C19.9193 7.40305 18.3131 6.56599 16.1922 6.40198C14.1844 6.24361 11.9899 7.57273 11.1868 7.57273C10.3384 7.57273 8.39284 6.45853 6.86577 6.45853C3.70984 6.50944 0.355957 8.97536 0.355957 13.992C0.355957 15.4739 0.627435 17.0047 1.17039 18.5846C1.89433 20.6602 4.50731 25.7504 7.2334 25.6656C8.65866 25.6317 9.66539 24.6532 11.5205 24.6532C13.319 24.6532 14.2522 25.6656 15.8415 25.6656C18.5902 25.626 20.9543 20.9996 21.6444 18.9182C17.9568 17.1819 18.1547 13.828 18.1547 13.7206ZM14.9536 4.43376C16.4976 2.60129 16.3562 0.932827 16.3109 0.333313C14.9479 0.412494 13.3699 1.26086 12.4707 2.30718C11.4809 3.42703 10.8984 4.8127 11.0228 6.3737C12.4989 6.48681 13.845 5.72894 14.9536 4.43376Z" fill="black"/>
</svg>
