<?xml version="1.0" standalone="no"?>
<!DOCTYPE svg PUBLIC "-//W3C//DTD SVG 20010904//EN"
 "http://www.w3.org/TR/2001/REC-SVG-20010904/DTD/svg10.dtd">
<svg version="1.0" xmlns="http://www.w3.org/2000/svg"
 width="512.000000pt" height="512.000000pt" viewBox="0 0 512.000000 512.000000"
 preserveAspectRatio="xMidYMid meet">

<g transform="translate(0.000000,512.000000) scale(0.100000,-0.100000)"
fill="#b0aeae" stroke="none">
<path d="M626 4789 c-62 -15 -153 -68 -197 -116 -22 -24 -55 -74 -72 -111
l-32 -67 0 -1936 0 -1935 37 -76 c45 -91 103 -147 196 -191 l67 -32 1936 0
1935 0 76 37 c91 45 147 103 191 196 l32 67 0 1935 0 1935 -32 67 c-44 93
-100 151 -191 196 l-76 37 -1915 2 c-1134 0 -1932 -3 -1955 -8z m3848 -161
c55 -16 138 -99 154 -154 18 -60 18 -3768 0 -3828 -16 -55 -99 -138 -154 -154
-60 -18 -3768 -18 -3828 0 -55 16 -138 99 -154 154 -18 60 -18 3768 0 3828 15
51 99 137 148 153 53 17 3777 17 3834 1z"/>
<path d="M1030 4374 c-143 -39 -247 -145 -285 -290 -14 -54 -15 -230 -13
-1550 l3 -1489 23 -55 c33 -81 85 -146 152 -189 109 -70 -4 -66 1660 -66
l1505 0 58 24 c77 30 151 93 193 161 68 111 64 19 64 1640 0 1621 4 1529 -64
1640 -42 68 -116 131 -193 161 l-58 24 -1495 2 c-1293 2 -1502 0 -1550 -13z
m3065 -171 c47 -25 85 -64 111 -113 18 -34 19 -90 19 -1530 0 -1440 -1 -1496
-19 -1530 -26 -49 -64 -88 -111 -113 l-40 -22 -1495 0 c-1440 0 -1496 1 -1530
19 -49 26 -88 64 -113 111 l-22 40 0 1495 c0 1440 1 1496 19 1530 35 66 87
110 156 131 14 4 691 7 1505 6 l1480 -2 40 -22z"/>
<path d="M2447 3410 c-186 -23 -353 -106 -484 -241 -73 -76 -88 -95 -135 -174
-142 -239 -161 -552 -49 -792 143 -304 442 -493 781 -493 396 0 732 257 830
635 26 100 29 275 6 383 -57 266 -242 501 -479 613 -128 59 -319 88 -470 69z
m278 -176 c65 -16 206 -80 243 -110 l23 -19 -105 -104 -105 -104 -63 29 c-55
25 -74 29 -158 29 -84 0 -103 -4 -158 -29 l-63 -29 -105 104 -104 103 28 23
c34 28 131 75 200 98 102 33 252 37 367 9z m-531 -516 c-25 -55 -29 -74 -29
-158 0 -84 4 -103 29 -158 l29 -63 -105 -106 -106 -106 -35 54 c-74 117 -108
237 -108 379 0 142 34 262 108 379 l35 54 106 -106 105 -106 -29 -63z m987
147 c21 -44 46 -107 54 -140 21 -79 21 -251 0 -330 -17 -67 -82 -207 -111
-243 l-19 -23 -104 105 -104 105 29 63 c25 55 29 74 29 158 0 84 -4 103 -29
158 l-29 63 104 105 104 105 19 -23 c10 -13 36 -59 57 -103z m-515 -93 c84
-43 128 -117 128 -212 0 -137 -96 -234 -234 -234 -138 0 -234 97 -234 234 0
112 62 195 174 231 38 13 123 3 166 -19z m-260 -579 c51 -24 71 -28 154 -28
83 0 103 4 158 29 l63 29 105 -104 105 -104 -23 -19 c-36 -29 -176 -94 -243
-111 -71 -18 -238 -21 -310 -5 -73 16 -173 58 -233 98 l-54 35 104 104 c56 56
106 103 109 103 4 0 33 -12 65 -27z"/>
</g>
</svg>
