<svg id="shield-3" xmlns="http://www.w3.org/2000/svg" fill="#2287f4" width="148.491" height="175.989" viewBox="0 0 148.491 175.989">
  <path id="Path_107" data-name="Path 107" d="M184.252,28.5,116.881.526a6.874,6.874,0,0,0-5.272,0L44.239,28.5A6.875,6.875,0,0,0,40,34.846v34a115.126,115.126,0,0,0,71.648,106.63,6.876,6.876,0,0,0,5.2,0A115.127,115.127,0,0,0,188.491,68.85v-34A6.874,6.874,0,0,0,184.252,28.5ZM174.742,68.85a101.4,101.4,0,0,1-60.5,92.8,101.4,101.4,0,0,1-60.5-92.8V39.436l60.5-25.118,60.5,25.118ZM106.647,92.022,136.2,62.474a6.874,6.874,0,1,1,9.722,9.722L111.508,106.6a6.875,6.875,0,0,1-9.722,0L82.574,87.392A6.874,6.874,0,0,1,92.3,77.67Z" transform="translate(-40 0)"/>
</svg>
