<svg width="22" height="23" viewBox="0 0 22 23" fill="none" xmlns="http://www.w3.org/2000/svg">
<path d="M11.2246 4.34016C13.3323 4.34016 14.7541 5.25059 15.5647 6.01137L18.7326 2.91838C16.787 1.10998 14.2552 0 11.2246 0C6.83455 0 3.04314 2.51929 1.19733 6.18597L4.8266 9.00458C5.73703 6.29822 8.25632 4.34016 11.2246 4.34016Z" fill="#EA4335"/>
<path d="M22 11.474C22 10.5511 21.9252 9.8776 21.763 9.17918H11.2244V13.3447H17.4104C17.2857 14.3799 16.6122 15.9389 15.1156 16.9865L18.6576 19.7303C20.7778 17.7722 22 14.8912 22 11.474Z" fill="#4285F4"/>
<path d="M4.83903 13.4445C4.60206 12.7461 4.46487 11.9978 4.46487 11.2245C4.46487 10.4513 4.60211 9.70299 4.8266 9.00458L1.19733 6.18597C0.436555 7.70752 0 9.41614 0 11.2245C0 13.0329 0.43651 14.7416 1.19728 16.2631L4.83903 13.4445Z" fill="#FBBC05"/>
<path d="M11.2248 22.4491C14.2554 22.4491 16.7993 21.4514 18.6576 19.7303L15.1156 16.9865C14.1678 17.6475 12.896 18.1089 11.2248 18.1089C8.2565 18.1089 5.73699 16.1509 4.83903 13.4445L1.20998 16.2631C3.05579 19.9298 6.83472 22.4491 11.2248 22.4491Z" fill="#34A853"/>
</svg>
