<svg width="34" height="34" viewBox="0 0 34 34" fill="none" xmlns="http://www.w3.org/2000/svg">
<path d="M17 0C18.0059 0 18.8214 0.815481 18.8214 1.82143V15.1786H32.1786C33.1845 15.1786 34 15.9941 34 17C34 18.0059 33.1845 18.8214 32.1786 18.8214H18.8214V32.1786C18.8214 33.1845 18.0059 34 17 34C15.9941 34 15.1786 33.1845 15.1786 32.1786V18.8214H1.82143C0.815481 18.8214 0 18.0059 0 17C0 15.9941 0.815481 15.1786 1.82143 15.1786H15.1786V1.82143C15.1786 0.815481 15.9941 0 17 0Z" fill="#5D8BFF"/>
</svg>
