<svg width="22" height="15" viewBox="0 0 22 15" fill="none" xmlns="http://www.w3.org/2000/svg">
<path d="M2.37627 9.63667C2.37627 10.4767 2.56065 11.1216 2.80164 11.5118C3.11761 12.0229 3.58889 12.2394 4.06934 12.2394C4.68904 12.2394 5.25595 12.0856 6.34845 10.5746C7.22368 9.36354 8.25497 7.66358 8.94888 6.59786L10.124 4.79232C10.9403 3.53839 11.8852 2.14446 12.9685 1.19961C13.8529 0.428432 14.8069 0 15.7671 0C17.3791 0 18.9145 0.934135 20.0897 2.68612C21.3757 4.60488 22 7.0217 22 9.51579C22 10.9985 21.7077 12.0879 21.2105 12.9486C20.73 13.781 19.7936 14.6126 18.2183 14.6126V12.2394C19.5671 12.2394 19.9037 11 19.9037 9.58158C19.9037 7.5603 19.4325 5.31715 18.3943 3.71436C17.6575 2.57748 16.7027 1.88281 15.6523 1.88281C14.5162 1.88281 13.602 2.73967 12.5745 4.26749C12.0282 5.07922 11.4675 6.06844 10.8378 7.18466L10.1447 8.41257C8.75226 10.8814 8.39957 11.4437 7.70337 12.3717C6.4831 13.9967 5.44109 14.6126 4.06934 14.6126C2.44206 14.6126 1.41306 13.908 0.775769 12.8461C0.255529 11.9808 0 10.8455 0 9.55175L2.37627 9.63667Z" fill="#0081FB"/>
<path d="M1.87362 2.85367C2.96306 1.17436 4.53526 0 6.3385 0C7.3828 0 8.42099 0.309083 9.50507 1.19426C10.6909 2.16205 11.9548 3.75567 13.5316 6.38211L14.0969 7.32466C15.4618 9.59841 16.2383 10.7682 16.6928 11.3198C17.2773 12.0282 17.6866 12.2394 18.2183 12.2394C19.5671 12.2394 19.9037 11 19.9037 9.58158L22 9.51579C22 10.9985 21.7077 12.0879 21.2105 12.9486C20.73 13.781 19.7936 14.6126 18.2183 14.6126C17.239 14.6126 16.3715 14.3999 15.4121 13.4949C14.6746 12.8002 13.8123 11.5661 13.149 10.4568L11.176 7.16094C10.186 5.50689 9.27785 4.27361 8.75226 3.71512C8.18688 3.11455 7.46007 2.38928 6.30025 2.38928C5.36152 2.38928 4.56433 3.04799 3.8972 4.05557L1.87362 2.85367Z" fill="url(#paint0_linear_459_197)"/>
<path d="M6.30025 2.38928C5.36152 2.38928 4.56433 3.04799 3.8972 4.05557C2.95388 5.47934 2.37627 7.60008 2.37627 9.63667C2.37627 10.4767 2.56065 11.1216 2.80164 11.5118L0.775769 12.8461C0.255529 11.9808 0 10.8455 0 9.55175C0 7.19919 0.645705 4.74718 1.87362 2.85367C2.96306 1.17436 4.53526 0 6.3385 0L6.30025 2.38928Z" fill="url(#paint1_linear_459_197)"/>
<defs>
<linearGradient id="paint0_linear_459_197" x1="3.05326" y1="8.95118" x2="19.6034" y2="9.86485" gradientUnits="userSpaceOnUse">
<stop stop-color="#0064E1"/>
<stop offset="0.4" stop-color="#0064E1"/>
<stop offset="0.83" stop-color="#0073EE"/>
<stop offset="1" stop-color="#0082FB"/>
</linearGradient>
<linearGradient id="paint1_linear_459_197" x1="3.44276" y1="10.6343" x2="3.44276" y2="5.04938" gradientUnits="userSpaceOnUse">
<stop stop-color="#0082FB"/>
<stop offset="1" stop-color="#0064E0"/>
</linearGradient>
</defs>
</svg>
