<svg width="22" height="22" viewBox="0 0 22 22" fill="none" xmlns="http://www.w3.org/2000/svg">
<path fill-rule="evenodd" clip-rule="evenodd" d="M11 22C17.0751 22 22 17.0751 22 11C22 4.92487 17.0751 0 11 0C4.92487 0 0 4.92487 0 11C0 17.0751 4.92487 22 11 22ZM15.0985 15.6208C15.4117 15.7997 15.8126 15.7162 16.0006 15.418C16.1885 15.1198 16.0883 14.7382 15.775 14.5592C13.0187 12.949 9.58584 12.5792 5.58917 13.45C5.23836 13.5215 5.02537 13.8555 5.10054 14.1895C5.17572 14.5235 5.52652 14.7262 5.87733 14.6547C9.53572 13.8674 12.6303 14.1895 15.0985 15.6208ZM16.1509 12.9609C16.5393 13.1756 17.0404 13.0683 17.2785 12.6985C17.5165 12.3287 17.3912 11.8516 17.0279 11.6369C13.783 9.7404 9.0471 9.21558 5.23836 10.3129C4.79985 10.4322 4.56181 10.8616 4.6871 11.2791C4.81238 11.6846 5.26342 11.9113 5.70192 11.792C9.03457 10.8258 13.3319 11.3029 16.1509 12.9609ZM5.20077 8.70268C8.43319 7.77231 14.0085 7.95123 17.3912 9.85968C17.8548 10.134 18.4562 9.97896 18.7193 9.5257C18.9949 9.08437 18.8446 8.51184 18.381 8.24943C14.4971 6.05471 8.33296 5.84001 4.62445 6.91351C4.11077 7.06857 3.81008 7.5934 3.97296 8.08244C4.13583 8.5834 4.6871 8.85774 5.20077 8.70268Z" fill="#1ED760"/>
</svg>
